<svg xmlns="http://www.w3.org/2000/svg" xmlns:xlink="http://www.w3.org/1999/xlink" display="none" version="1.1">
  <defs>
    <symbol id="codepen" viewBox="0 0 24 24">
      <path d="M19.45 13.29L17.5 12l1.95-1.29m-6.68 8.07v-3.61l3.36-2.24 2.7 1.81M12 13.83L9.26 12 12 10.17 14.74 12m-3.51 6.78l-6.06-4.04 2.7-1.81 3.36 2.24m-6.68-4.46L6.5 12l-1.95 1.29m6.68-8.07v3.61l-3.36 2.24-2.7-1.81m7.6-4.04l6.06 4.04-2.7 1.81-3.36-2.24m8.23.33v-.04c0-.02 0-.04-.03-.06 0-.01 0-.03-.01-.06 0 0-.01 0-.02-.04 0-.01-.01-.02-.02-.03 0-.02-.01-.04-.02-.05-.01-.02-.02-.03-.02-.04-.01-.02-.03-.03-.04-.05-.01-.01-.01-.02-.02-.03a.04.04 0 0 0-.04-.04l-.03-.03c-.02-.02-.03-.03-.05-.04l-.03-.03c-.01 0-.01 0-.01-.01l-8.23-5.48c-.26-.17-.6-.17-.86 0L3.34 8.61c0 .01 0 .01-.01.01l-.03.03c-.02.01-.03.02-.05.04l-.03.03-.04.04c-.01.01-.01.02-.02.03-.01.02-.03.03-.04.05 0 .01-.01.02-.02.04-.01.01-.02.03-.02.05-.01.01-.02.02-.02.03-.01.04-.01.04-.02.04-.01.03-.01.05-.01.06C3 9.08 3 9.1 3 9.12v5.76c0 .02 0 .04.03.06 0 .01 0 .03.01.06.01 0 .01 0 .02.04 0 .01.01.02.02.03 0 .02.01.04.02.05.01.02.02.03.02.04.01.02.03.03.04.05.01.01.01.02.02.03.02.01.03.03.04.04l.03.03c.02.02.03.03.05.04l.03.03c.01 0 .01 0 .01.01l8.23 5.48c.13.09.28.13.43.13.15 0 .3-.04.43-.13l8.23-5.48c0-.01 0-.01.01-.01l.03-.03c.02-.01.03-.02.05-.04l.03-.03c.01-.01.02-.03.04-.04.01-.01.01-.02.02-.03.01-.02.03-.03.04-.05 0-.01.01-.02.02-.04.01-.01.02-.03.02-.05.01-.01.02-.02.02-.03.01-.04.02-.04.02-.04.01-.03.01-.05.01-.06.03-.02.03-.04.03-.06v-.04-5.58-.1z"/>
    </symbol>

    <svg id="github" viewBox="0 0 32 32">
      <path d="M16.003 0C7.17 0 .008 7.162.008 15.997c0 7.067 4.582 13.063 10.94 15.18.8.145 1.052-.33 1.052-.753 0-.38.008-1.442 0-2.777-4.45.967-5.37-2.107-5.37-2.107-.728-1.848-1.776-2.34-1.776-2.34-1.452-.992.11-.973.11-.973 1.604.113 2.45 1.65 2.45 1.65 1.427 2.442 3.743 1.736 4.654 1.328.146-1.034.56-1.74 1.017-2.14C9.533 22.663 5.8 21.29 5.8 15.16c0-1.747.622-3.174 1.645-4.292-.165-.404-.715-2.03.157-4.234 0 0 1.343-.43 4.398 1.64 1.276-.354 2.645-.53 4.005-.537 1.36.006 2.727.183 4.005.538 3.055-2.07 4.396-1.64 4.396-1.64.872 2.202.323 3.83.16 4.233 1.022 1.118 1.643 2.545 1.643 4.292 0 6.146-3.74 7.498-7.305 7.893C19.48 23.548 20 24.508 20 26v4.428c0 .428.258.9 1.07.746C27.422 29.054 32 23.062 32 15.997 32 7.162 24.838 0 16.003 0z"/>
    </svg>

    <symbol id="linkedin" viewBox="0 0 24 24">
      <path d="M21 21h-4v-6.75c0-1.06-1.19-1.94-2.25-1.94S13 13.19 13 14.25V21H9V9h4v2c.66-1.07 2.36-1.76 3.5-1.76 2.5 0 4.5 2.04 4.5 4.51V21M7 21H3V9h4v12M5 3a2 2 0 0 1 2 2 2 2 0 0 1-2 2 2 2 0 0 1-2-2 2 2 0 0 1 2-2z"/>
    </symbol>

    <symbol id="glasses" viewBox="0 0 5400 5400">
      <path d="M240.194 1676.907L138.38 743.61c1682.764-356.35 3440.476-374.734 5123.24-87.674l-8.484 425.64c-1875.08-284.232-3925.508-521.798-4006.11 680.177 25.452 948.853-159.793 2896.052 1549.84 3246.746l-615.13 19.796c-67.875 2.828-343.622-36.766-558.564-224.84C876.534 4185.5 1029.255 1681.15 241.608 1675.493l-1.414 1.414zm455.336-664.62c72.12 0 131.51 52.32 131.51 117.368s-59.39 117.37-131.51 117.37c-72.118 0-131.51-52.322-131.51-117.37s59.392-117.37 131.51-117.37z"/>
      <circle cx="687.176" cy="1141.85" r="166.693" fill="#673AB7"/>
    </symbol>

    <symbol id="email" viewBox="0 0 24 24">
      <path d="M20 4H4c-1.1 0-1.99.9-1.99 2L2 18c0 1.1.9 2 2 2h16c1.1 0 2-.9 2-2V6c0-1.1-.9-2-2-2zm0 4l-8 5-8-5V6l8 5 8-5v2z"/>
      <path d="M0 0h24v24H0z" fill="none"/>
    </symbol>
  </defs>
</svg>
